<svg viewBox="0 0 512 512" xml:space="preserve" xmlns="http://www.w3.org/2000/svg" enable-background="new 0 0 512 512"><circle cx="255.672" cy="255.93" r="256" fill="#657b83" class="fill-aac26f"></circle><path d="M255.672 511.93c141.386 0 256-114.612 256-256 0-68.157-26.688-130.043-70.113-175.916L77.413 439.58c46.097 44.752 108.939 72.35 178.259 72.35z" fill="#657b83" class="fill-93a960"></path><path d="M162.566 345.706c0 7.616 6.273 13.813 14.042 13.813h21.827v48.045c0 10.229 8.369 18.453 18.69 18.453h2.191c10.324 0 18.693-8.226 18.693-18.453V359.52h36.727v48.045c0 10.229 8.354 18.453 18.693 18.453h2.174c10.327 0 18.693-8.226 18.693-18.453V359.52h21.949c7.732 0 14.006-6.196 14.006-13.813V191.805H162.564v153.901h.002zM133.173 192.45h-2.174c-10.327 0-18.693 8.262-18.693 18.454v87.771c0 10.19 8.366 18.45 18.693 18.45h2.174c10.324 0 18.689-8.26 18.689-18.45v-87.771c.001-10.192-8.365-18.454-18.689-18.454zM380.332 192.45h-2.181c-10.321 0-18.69 8.262-18.69 18.454v87.771c0 10.19 8.369 18.45 18.69 18.45h2.181c10.319 0 18.706-8.26 18.706-18.45v-87.771c0-10.192-8.386-18.454-18.706-18.454zM302.912 117.942l16.597-24.601c1.474-2.217.856-5.229-1.37-6.704-2.264-1.454-5.281-.86-6.755 1.339l-17.612 26.139c-11.454-4.182-24.074-6.519-37.364-6.519-13.697 0-26.729 2.509-38.476 6.925L199.79 88.164c-1.507-2.201-4.543-2.777-6.756-1.287-2.228 1.506-2.827 4.504-1.307 6.703l17.114 24.854c-26.424 13.035-44.581 36.568-46.276 63.723h187.688c-1.713-27.544-20.333-51.314-47.341-64.215zm-87.003 39.565c-5.799 0-10.464-4.604-10.464-10.311s4.665-10.311 10.464-10.311c5.759 0 10.406 4.604 10.406 10.311.001 5.705-4.647 10.311-10.406 10.311zm80.951 0c-5.781 0-10.459-4.604-10.459-10.311s4.678-10.311 10.459-10.311c5.76 0 10.44 4.604 10.44 10.311.001 5.705-4.681 10.311-10.44 10.311z" fill="#fdf6e3" class="fill-ffffff"></path><path d="M164.858 353.236a14.062 14.062 0 0 0 11.75 6.281h21.827v48.045c0 10.229 8.369 18.454 18.69 18.454h2.191c10.324 0 18.693-8.226 18.693-18.454v-48.045h36.727v48.045c0 10.229 8.354 18.454 18.693 18.454h2.174c10.327 0 18.693-8.226 18.693-18.454v-48.045h21.949c7.732 0 14.006-6.195 14.006-13.813v-153.9h-21.91L164.858 353.236zM380.332 192.45h-2.181c-10.321 0-18.69 8.262-18.69 18.454v87.771c0 10.19 8.369 18.45 18.69 18.45h2.181c10.319 0 18.706-8.26 18.706-18.45v-87.771c0-10.192-8.386-18.454-18.706-18.454zm-42.216-10.295h12.138a66.454 66.454 0 0 0-1.512-10.493l-10.626 10.493z" fill="#eee8d5" class="fill-f1f2f2"></path></svg>