<svg viewBox="0 0 128 128" xml:space="preserve" xmlns="http://www.w3.org/2000/svg"><circle cx="64" cy="64" fill="#d33682" r="64" class="fill-4b5f83"></circle><path d="M95 96H33c-2.2 0-4-1.8-4-4V37c0-2.2 1.8-4 4-4h62c2.2 0 4 1.8 4 4v55c0 2.2-1.8 4-4 4z" fill="#fdf6e3" class="fill-ffffff"></path><g fill="#eee8d5" class="fill-e6e6e6"><path d="M56 57h33v4H56zM56 65h33v4H56zM39 73h50v4H39zM39 81h50v4H39z"></path></g><path fill="#839496" d="M39 57h12v12H39z" class="fill-22a7f0"></path><path d="M95 33H33c-2.2 0-4 1.8-4 4v9h70v-9c0-2.2-1.8-4-4-4z" fill="#eee8d5" class="fill-e6e6e6"></path><circle cx="36" cy="39.8" fill="#dc322f" r="2" class="fill-cf000f"></circle><circle cx="42" cy="39.8" fill="#cb4b16" r="2" class="fill-e67e22"></circle><circle cx="48" cy="39.8" fill="#859900" r="2" class="fill-26a65b"></circle></svg>