<svg width="110" height="110" xmlns="http://www.w3.org/2000/svg">

 <g>
  <title>background</title>
  <rect fill="none" id="canvas_background" height="402" width="582" y="-1" x="-1"/>
 </g>
 <g>
  <title>Layer 1</title>
  <circle id="svg_1" fill="#b58900" r="55" cy="55" cx="55"/>
  <path id="svg_3" fill="#073642" d="m39,73.053542c0,2.209 1.791,4 4,4l24,0l12,12l0,-12l4,0c2.209,0 4,-1.791 4,-4l0,-32c0,-2.209 -1.791,-4 -4,-4l-40,0c-2.209,0 -4,1.791 -4,4l0,32z"/>
  <path id="svg_4" fill="#eee8d5" d="m71,65.053542c0,2.209 -1.791,4 -4,4l-24,0l-12,12l0,-12l-4,0c-2.209,0 -4,-1.791 -4,-4l0,-32c0,-2.209 1.791,-4 4,-4l40,0c2.209,0 4,1.791 4,4l0,32z"/>
  <path id="svg_5" fill="#fdf6e3" d="m70.335,30.851542c-0.715,-1.082 -1.94,-1.798 -3.335,-1.798l-40,0c-2.209,0 -4,1.791 -4,4l0,32c0,2.209 1.791,4 4,4l4,0l0,1.134l39.335,-39.336z"/>
  <circle id="svg_6" fill="#93a1a1" r="4" cy="49.053542" cx="35"/>
  <circle id="svg_7" fill="#93a1a1" r="4" cy="49.053542" cx="47"/>
  <circle id="svg_8" fill="#93a1a1" r="4" cy="49.053542" cx="59"/>
 </g>
</svg>