<svg width="110" height="110" xmlns="http://www.w3.org/2000/svg">

 <g>
  <title>background</title>
  <rect fill="none" id="canvas_background" height="402" width="582" y="-1" x="-1"/>
 </g>
 <g>
  <title>Layer 1</title>
  <circle id="svg_1" fill="#2aa198" r="55" cy="55" cx="55"/>
  <path id="svg_47" fill="#002b36" d="m87,73.727c0,1.607 -1.302,2.909 -2.909,2.909l-58.182,0c-1.607,0 -2.909,-1.302 -2.909,-2.909l0,-40.727c0,-1.607 1.302,-2.909 2.909,-2.909l58.182,0c1.607,0 2.909,1.302 2.909,2.909l0,40.727z"/>
  <rect id="svg_4" fill="#eee8d5" y="76.636" x="46.273" width="17.455" height="7.455"/>
  <path id="svg_5" fill="#fdf6e3" d="m69.545,85.545c0,0.803 -0.651,1.455 -1.455,1.455l-26.181,0c-0.803,0 -1.455,-0.651 -1.455,-1.455s0.651,-1.455 1.455,-1.455l26.182,0c0.803,0.001 1.454,0.652 1.454,1.455z"/>
  <path id="svg_6" fill="#fdf6e3" d="m87,73.727l0,-8.727l-64,0l0,8.727c0,1.607 1.303,2.909 2.909,2.909l58.182,0c1.606,0 2.909,-1.302 2.909,-2.909z"/>
  <path id="svg_7" fill="#eee8d5" d="m55,74.909c-2.156,0 -3.909,-1.753 -3.909,-3.909c0,-2.155 1.754,-3.909 3.909,-3.909s3.909,1.753 3.909,3.909c0,2.156 -1.753,3.909 -3.909,3.909zm0,-5.818c-1.053,0 -1.909,0.856 -1.909,1.909c0,1.053 0.856,1.909 1.909,1.909s1.909,-0.856 1.909,-1.909c0,-1.052 -0.856,-1.909 -1.909,-1.909z"/>
  <path stroke="null" id="svg_48" fill="#073642" d="m23,64.95055l0,-32.535633c0,-1.283787 1.302,-2.323917 2.909,-2.323917l58.182,0l-61.091,34.85955z"/>
  <path id="svg_10" fill="#fdf6e3" d="m30.414,37.489c0,-1.104 0.378,-1.724 1.104,-1.724c0.727,0 1.104,0.62 1.104,1.724c0,1.109 -0.378,1.729 -1.104,1.729c-0.726,0 -1.104,-0.62 -1.104,-1.729zm1.749,0c0,-0.974 -0.237,-1.371 -0.644,-1.371c-0.402,0 -0.644,0.397 -0.644,1.371c0,0.979 0.242,1.376 0.644,1.376c0.406,-0.001 0.644,-0.398 0.644,-1.376zm-0.645,-0.315c0.184,0 0.32,0.14 0.32,0.315c0,0.179 -0.136,0.32 -0.32,0.32c-0.179,0 -0.315,-0.141 -0.315,-0.32c0,-0.175 0.136,-0.315 0.315,-0.315z"/>
  <path id="svg_11" fill="#fdf6e3" d="m34.408,36.312l-0.799,0.484l-0.213,-0.31l1.066,-0.664l0.392,0l0,2.979l0.683,0l0,0.359l-1.947,0l0,-0.359l0.819,0l0,-2.489l-0.001,0z"/>
  <path id="svg_12" fill="#fdf6e3" d="m41.06,36.273l0.213,0.334l-1.695,1.037l1.695,1.041l-0.233,0.325l-1.846,-1.153l0,-0.431l1.866,-1.153z"/>
  <path id="svg_13" fill="#fdf6e3" d="m43.742,39.16l0,-1.564l-1.211,0l0,1.564l-0.46,0l0,-3.337l0.46,0l0,1.395l1.211,0l0,-1.395l0.46,0l0,3.337l-0.46,0z"/>
  <path id="svg_14" fill="#fdf6e3" d="m46.264,36.21l0,2.95l-0.46,0l0,-2.95l-1.032,0l0,-0.387l2.538,0l-0.048,0.387l-0.998,0z"/>
  <path id="svg_15" fill="#fdf6e3" d="m49.822,39.16l-0.097,-1.71c-0.024,-0.47 -0.024,-1.012 -0.019,-1.119l-0.015,0l-0.528,2.233l-0.441,0l-0.552,-2.233l-0.019,0c0,0.111 0.01,0.688 -0.01,1.119l-0.082,1.71l-0.426,0l0.189,-3.337l0.61,0l0.514,2.228l0.019,0l0.489,-2.228l0.615,0l0.189,3.337l-0.436,0z"/>
  <path id="svg_16" fill="#fdf6e3" d="m51.031,39.16l0,-3.337l0.46,0l0,2.935l1.516,0l-0.053,0.402l-1.923,0z"/>
  <path id="svg_17" fill="#fdf6e3" d="m55.796,37.426l0,0.431l-1.846,1.153l-0.233,-0.325l1.695,-1.041l-1.695,-1.037l0.213,-0.334l1.866,1.153z"/>
  <path id="svg_18" fill="#fdf6e3" d="m30.414,43.298c0,-1.104 0.378,-1.724 1.104,-1.724c0.727,0 1.104,0.62 1.104,1.724c0,1.109 -0.378,1.729 -1.104,1.729c-0.726,0 -1.104,-0.62 -1.104,-1.729zm1.749,0c0,-0.974 -0.237,-1.371 -0.644,-1.371c-0.402,0 -0.644,0.397 -0.644,1.371c0,0.979 0.242,1.376 0.644,1.376c0.406,-0.001 0.644,-0.398 0.644,-1.376zm-0.645,-0.315c0.184,0 0.32,0.14 0.32,0.315c0,0.179 -0.136,0.32 -0.32,0.32c-0.179,0 -0.315,-0.141 -0.315,-0.32c0,-0.175 0.136,-0.315 0.315,-0.315z"/>
  <path id="svg_19" fill="#fdf6e3" d="m33.895,44.596l1.516,0l-0.053,0.373l-1.986,0l0,-0.354c1.153,-1.143 1.507,-1.604 1.507,-2.107c0,-0.359 -0.242,-0.562 -0.567,-0.562c-0.276,0 -0.465,0.102 -0.669,0.358l-0.31,-0.218c0.262,-0.324 0.591,-0.514 1.003,-0.514c0.61,0 1.003,0.388 1.003,0.921c-0.001,0.582 -0.461,1.163 -1.444,2.103z"/>
  <path id="svg_20" fill="#fdf6e3" d="m41.06,42.082l0.213,0.334l-1.695,1.037l1.695,1.041l-0.233,0.325l-1.846,-1.153l0,-0.431l1.866,-1.153z"/>
  <path id="svg_21" fill="#fdf6e3" d="m43.049,44.969l-0.92,0l0,-3.337l0.848,0c0.596,0 1.192,0.189 1.192,0.843c0,0.426 -0.3,0.649 -0.581,0.712l0,0.019c0.334,0.063 0.727,0.257 0.727,0.809c-0.002,0.731 -0.641,0.954 -1.266,0.954zm0.01,-2.974l-0.47,0l0,1.046l0.509,0c0.388,0 0.601,-0.16 0.601,-0.538c-0.001,-0.368 -0.243,-0.508 -0.64,-0.508zm0.072,1.414l-0.543,0l0,1.187l0.523,0c0.325,0 0.717,-0.092 0.717,-0.572c0.001,-0.489 -0.314,-0.615 -0.697,-0.615z"/>
  <path id="svg_22" fill="#fdf6e3" d="m46.041,45.027c-0.819,0 -1.24,-0.683 -1.24,-1.719c0,-1.017 0.421,-1.734 1.24,-1.734c0.819,0 1.24,0.693 1.24,1.729c0,1.017 -0.422,1.724 -1.24,1.724zm0,-3.076c-0.543,0 -0.761,0.475 -0.761,1.356s0.233,1.342 0.761,1.342c0.543,0 0.76,-0.465 0.76,-1.347c0,-0.881 -0.218,-1.351 -0.76,-1.351z"/>
  <path id="svg_23" fill="#fdf6e3" d="m48.659,44.969l-0.78,0l0,-3.337l0.727,0c0.79,0 1.574,0.266 1.574,1.652c0,1.394 -0.813,1.685 -1.521,1.685zm0.049,-2.969l-0.368,0l0,2.606l0.373,0c0.475,0 0.978,-0.242 0.978,-1.322c0,-1.134 -0.528,-1.284 -0.983,-1.284z"/>
  <path id="svg_24" fill="#fdf6e3" d="m52.082,43.685l0,1.284l-0.465,0l0,-1.279l-1.124,-2.059l0.509,0l0.853,1.632l0.015,0l0.857,-1.632l0.479,0l-1.124,2.054z"/>
  <path id="svg_25" fill="#fdf6e3" d="m55.796,43.235l0,0.431l-1.846,1.153l-0.233,-0.325l1.695,-1.041l-1.695,-1.037l0.213,-0.334l1.866,1.153z"/>
  <path id="svg_26" fill="#fdf6e3" d="m30.414,49.107c0,-1.104 0.378,-1.724 1.104,-1.724c0.727,0 1.104,0.62 1.104,1.724c0,1.109 -0.378,1.729 -1.104,1.729c-0.726,0 -1.104,-0.62 -1.104,-1.729zm1.749,0c0,-0.974 -0.237,-1.371 -0.644,-1.371c-0.402,0 -0.644,0.397 -0.644,1.371c0,0.979 0.242,1.376 0.644,1.376c0.406,-0.001 0.644,-0.398 0.644,-1.376zm-0.645,-0.315c0.184,0 0.32,0.14 0.32,0.315c0,0.179 -0.136,0.32 -0.32,0.32c-0.179,0 -0.315,-0.141 -0.315,-0.32c0,-0.175 0.136,-0.315 0.315,-0.315z"/>
  <path id="svg_27" fill="#fdf6e3" d="m34.292,50.836c-0.388,0 -0.785,-0.14 -1.041,-0.45l0.29,-0.242c0.189,0.223 0.465,0.329 0.736,0.329c0.45,0 0.722,-0.252 0.722,-0.659c0,-0.465 -0.286,-0.62 -0.678,-0.62l-0.257,0l0.053,-0.344l0.175,0c0.32,0 0.62,-0.179 0.62,-0.567c0,-0.354 -0.271,-0.548 -0.615,-0.548c-0.286,0 -0.484,0.102 -0.702,0.305l-0.242,-0.266c0.286,-0.271 0.615,-0.393 0.969,-0.393c0.639,0 1.037,0.383 1.037,0.838c0,0.407 -0.3,0.708 -0.634,0.771l0,0.019c0.368,0.024 0.741,0.3 0.741,0.809c-0.002,0.577 -0.472,1.018 -1.174,1.018z"/>
  <path id="svg_28" fill="#fdf6e3" d="m41.06,47.891l0.213,0.334l-1.695,1.037l1.695,1.041l-0.233,0.325l-1.846,-1.153l0,-0.431l1.866,-1.153z"/>
  <path id="svg_29" fill="#fdf6e3" d="m43.742,50.778l0,-1.564l-1.211,0l0,1.564l-0.46,0l0,-3.338l0.46,0l0,1.395l1.211,0l0,-1.395l0.46,0l0,3.337l-0.46,0l0,0.001z"/>
  <path id="svg_30" fill="#fdf6e3" d="m45.59,47.808l0,1.09l1.23,0l0,0.368l-1.23,0l0,1.148l1.507,0l0,0.363l-1.967,0l0,-3.337l1.928,0l-0.053,0.368l-1.415,0z"/>
  <path id="svg_31" fill="#fdf6e3" d="m49.575,49.94l-1.284,0l-0.257,0.838l-0.46,0l1.08,-3.337l0.581,0l1.08,3.337l-0.484,0l-0.256,-0.838zm-1.172,-0.373l1.061,0l-0.518,-1.71l-0.019,0l-0.524,1.71z"/>
  <path id="svg_32" fill="#fdf6e3" d="m51.564,50.778l-0.78,0l0,-3.338l0.727,0c0.79,0 1.574,0.266 1.574,1.652c0,1.395 -0.814,1.686 -1.521,1.686zm0.048,-2.97l-0.368,0l0,2.606l0.373,0c0.475,0 0.978,-0.242 0.978,-1.322c0.001,-1.133 -0.527,-1.284 -0.983,-1.284z"/>
  <path id="svg_33" fill="#fdf6e3" d="m54.304,47.808l0,1.09l1.23,0l0,0.368l-1.23,0l0,1.148l1.507,0l0,0.363l-1.967,0l0,-3.337l1.928,0l-0.053,0.368l-1.415,0z"/>
  <path id="svg_34" fill="#fdf6e3" d="m58.022,49.306l0.978,1.472l-0.547,0l-0.891,-1.414l-0.426,0l0,1.414l-0.46,0l0,-3.338l0.877,0c0.833,0 1.269,0.319 1.269,0.944c-0.001,0.5 -0.35,0.805 -0.8,0.922zm-0.427,-1.507l-0.46,0l0,1.211l0.465,0c0.465,0 0.731,-0.174 0.731,-0.625c0.001,-0.417 -0.237,-0.586 -0.736,-0.586z"/>
  <path id="svg_35" fill="#fdf6e3" d="m61.605,49.044l0,0.431l-1.846,1.153l-0.233,-0.325l1.695,-1.041l-1.695,-1.037l0.213,-0.334l1.866,1.153z"/>
  <path id="svg_36" fill="#fdf6e3" d="m30.414,54.916c0,-1.104 0.378,-1.724 1.104,-1.724c0.727,0 1.104,0.62 1.104,1.724c0,1.109 -0.378,1.729 -1.104,1.729c-0.726,0 -1.104,-0.62 -1.104,-1.729zm1.749,0c0,-0.974 -0.237,-1.371 -0.644,-1.371c-0.402,0 -0.644,0.397 -0.644,1.371c0,0.979 0.242,1.376 0.644,1.376c0.406,0 0.644,-0.398 0.644,-1.376zm-0.645,-0.315c0.184,0 0.32,0.14 0.32,0.315c0,0.179 -0.136,0.32 -0.32,0.32c-0.179,0 -0.315,-0.141 -0.315,-0.32c0,-0.174 0.136,-0.315 0.315,-0.315z"/>
  <path id="svg_37" fill="#fdf6e3" d="m35.101,55.788l0,0.799l-0.431,0l0,-0.799l-1.366,0l0,-0.315l0.978,-2.282l0.373,0.155l-0.882,2.088l0.896,0l0.044,-0.872l0.387,0l0,0.872l0.421,0l0,0.354l-0.42,0z"/>
  <path id="svg_38" fill="#fdf6e3" d="m41.06,53.7l0.213,0.334l-1.695,1.037l1.695,1.041l-0.233,0.325l-1.846,-1.153l0,-0.431l1.866,-1.153z"/>
  <path id="svg_39" fill="#fdf6e3" d="m42.284,57.091l-0.359,-0.16l2.068,-4.267l0.354,0.17l-2.063,4.257z"/>
  <path id="svg_40" fill="#fdf6e3" d="m46.646,56.587l0,-1.564l-1.211,0l0,1.564l-0.46,0l0,-3.337l0.46,0l0,1.395l1.211,0l0,-1.395l0.46,0l0,3.337l-0.46,0z"/>
  <path id="svg_41" fill="#fdf6e3" d="m48.495,53.618l0,1.09l1.23,0l0,0.368l-1.23,0l0,1.148l1.507,0l0,0.363l-1.967,0l0,-3.337l1.928,0l-0.053,0.368l-1.415,0z"/>
  <path id="svg_42" fill="#fdf6e3" d="m52.479,55.749l-1.284,0l-0.257,0.838l-0.46,0l1.08,-3.337l0.581,0l1.08,3.337l-0.484,0l-0.256,-0.838zm-1.172,-0.373l1.061,0l-0.518,-1.71l-0.02,0l-0.523,1.71z"/>
  <path id="svg_43" fill="#fdf6e3" d="m54.468,56.587l-0.78,0l0,-3.337l0.727,0c0.79,0 1.574,0.266 1.574,1.652c0,1.395 -0.813,1.685 -1.521,1.685zm0.049,-2.969l-0.368,0l0,2.606l0.373,0c0.475,0 0.978,-0.242 0.978,-1.322c0,-1.134 -0.528,-1.284 -0.983,-1.284z"/>
  <path id="svg_44" fill="#fdf6e3" d="m57.208,53.618l0,1.09l1.23,0l0,0.368l-1.23,0l0,1.148l1.507,0l0,0.363l-1.967,0l0,-3.337l1.928,0l-0.053,0.368l-1.415,0z"/>
  <path id="svg_45" fill="#fdf6e3" d="m60.926,55.114l0.979,1.473l-0.547,0l-0.891,-1.414l-0.427,0l0,1.414l-0.46,0l0,-3.337l0.877,0c0.833,0 1.269,0.319 1.269,0.944c0,0.499 -0.349,0.804 -0.8,0.92zm-0.426,-1.506l-0.46,0l0,1.211l0.465,0c0.465,0 0.731,-0.174 0.731,-0.625c0,-0.416 -0.237,-0.586 -0.736,-0.586z"/>
  <path id="svg_46" fill="#fdf6e3" d="m64.509,54.853l0,0.431l-1.846,1.153l-0.233,-0.325l1.695,-1.041l-1.695,-1.037l0.213,-0.334l1.866,1.153z"/>
 </g>
</svg>