<svg viewBox="0 0 128 128" xml:space="preserve" xmlns="http://www.w3.org/2000/svg"><circle cx="64" cy="64" fill="#586e75" r="64" class="fill-4b5f83"></circle><path d="M90 86.5H38c-2.2 0-4-1.8-4-4v-7c0-2.2 1.8-4 4-4h52c2.2 0 4 1.8 4 4v7c0 2.2-1.8 4-4 4z" fill="#eee8d5" class="fill-22313f"></path><path d="M40 84c-1.1 0-2-.9-2-2v-6c0-1.1.9-2 2-2s2 .9 2 2v6c0 1.1-.9 2-2 2z" fill="#657b83" class="fill-22a7f0"></path><path d="M90 71.5H38c-2.2 0-4-1.8-4-4v-7c0-2.2 1.8-4 4-4h52c2.2 0 4 1.8 4 4v7c0 2.2-1.8 4-4 4z" fill="#fdf6e3" class="fill-2b3d4c"></path><path d="M40 69c-1.1 0-2-.9-2-2v-6c0-1.1.9-2 2-2s2 .9 2 2v6c0 1.1-.9 2-2 2z" fill="#657b83" class="fill-22a7f0"></path><path d="M90 56.5H38c-2.2 0-4-1.8-4-4v-7c0-2.2 1.8-4 4-4h52c2.2 0 4 1.8 4 4v7c0 2.2-1.8 4-4 4z" fill="#eee8d5" class="fill-22313f"></path><path d="M40 54c-1.1 0-2-.9-2-2v-6c0-1.1.9-2 2-2s2 .9 2 2v6c0 1.1-.9 2-2 2z" fill="#657b83" class="fill-22a7f0"></path></svg>