<svg viewBox="0 0 512 512" xml:space="preserve" xmlns="http://www.w3.org/2000/svg" enable-background="new 0 0 512 512"><circle cx="256" cy="256" r="256" fill="#586e75" class="fill-e7e3ce"></circle><path d="M256 512c141.387 0 256-114.613 256-256 0-68.157-26.686-130.043-70.116-175.917L77.742 439.652C123.839 484.402 186.68 512 256 512z" fill="#586e75" class="fill-e0ddc9"></path><path d="M387.233 321.227c-7.952-2.508-14.756-6.92-20.633-12.744-10.904-10.809-18.649-23.495-22.032-38.574-4.175-18.616-2.339-36.503 7.088-53.349 3.626-6.481 8.192-12.252 13.449-17.456 3.908-3.869 8.023-7.529 12.049-11.281.368-.344.75-.672 1.179-1.055-.724-.87-1.368-1.663-2.03-2.44-5.161-6.051-10.736-11.675-17.152-16.408-9.285-6.852-19.665-11.104-31.041-13.01-11.651-1.953-23.126-1.008-34.522 1.827-6.522 1.623-12.844 3.875-19.234 5.915-5.151 1.644-10.361 3.058-15.674 4.116-4.894.975-9.715.788-14.57-.205-6.947-1.42-13.776-3.292-20.582-5.249-7.759-2.231-15.594-4.101-23.609-5.132-13.233-1.703-26.147-.659-38.552 4.606-9.249 3.927-17.136 9.778-23.992 17.066-10.35 11.005-17.433 23.892-21.93 38.253-2.598 8.302-4.2 16.803-5.11 25.45-.872 8.277-1.057 16.573-.697 24.873.554 12.808 2.618 25.392 5.934 37.773 4.655 17.383 11.597 33.833 20.186 49.613 5.223 9.593 10.842 18.938 17.445 27.661 5.026 6.639 10.515 12.85 16.979 18.141 5.5 4.498 11.464 8.189 18.371 10.104 2.278.631 4.652.914 6.982 1.361.358.068.714.162 1.069.244h4.198c1.61-.236 3.226-.436 4.828-.715 6.324-1.107 12.345-3.211 18.263-5.641 6.264-2.57 12.646-4.734 19.307-6.063 7.141-1.425 14.265-1.364 21.404-.059 6.808 1.243 13.385 3.288 19.889 5.608 6.062 2.164 12.224 3.953 18.533 5.285 10.869 2.297 20.81.137 30.071-5.772 6.025-3.844 11.239-8.618 16.026-13.886 7.021-7.728 12.946-16.262 18.403-25.135 6.633-10.783 12.481-21.965 16.995-33.813 1.192-3.129 2.262-6.304 3.406-9.507-.314-.185-.489-.337-.694-.402z" fill-rule="evenodd" clip-rule="evenodd" fill="#fdf6e3" class="fill-ffffff"></path><path d="M252.431 158.861c4.122-.469 8.228-1.062 12.25-2.101 5.314-1.373 10.066-3.945 14.433-7.187 15.591-11.574 26.106-26.651 31.14-45.473 1.524-5.7 2.462-11.481 2.446-17.39-.008-2.656-.238-5.298-1.195-7.956-.389.044-.671.045-.938.109-9.372 2.243-18.437 5.318-26.907 9.989-9.164 5.054-16.988 11.62-22.859 20.364-10.027 14.938-14.377 31.573-14.695 49.402-.005.26.087.522.15.879 2.102-.214 4.141-.405 6.175-.636z" fill-rule="evenodd" clip-rule="evenodd" fill="#fdf6e3" class="fill-ffffff"></path><path d="M153.2 381.477c5.026 6.639 10.515 12.85 16.979 18.141 5.5 4.498 11.464 8.189 18.371 10.104 2.278.631 4.652.914 6.982 1.361.358.068.714.162 1.069.244h4.198c1.61-.236 3.226-.436 4.828-.715 6.324-1.107 12.345-3.211 18.263-5.641 6.264-2.57 12.646-4.734 19.307-6.063 7.141-1.425 14.265-1.364 21.404-.059 6.808 1.243 13.385 3.288 19.889 5.608 6.062 2.164 12.224 3.953 18.533 5.285 10.869 2.297 20.81.137 30.071-5.772 6.025-3.844 11.239-8.618 16.026-13.886 7.021-7.728 12.946-16.262 18.403-25.135 6.633-10.783 12.481-21.965 16.995-33.813 1.192-3.129 2.262-6.304 3.406-9.507-.313-.185-.489-.337-.693-.402-7.952-2.508-14.756-6.92-20.633-12.744-10.904-10.809-18.649-23.495-22.032-38.574-4.175-18.616-2.339-36.503 7.088-53.349 3.626-6.481 8.192-12.252 13.449-17.456 3.908-3.869 8.023-7.529 12.049-11.281.368-.344.75-.672 1.179-1.055-.724-.87-1.368-1.663-2.03-2.44-5.161-6.051-10.736-11.675-17.152-16.408a71.233 71.233 0 0 0-3.66-2.528L146.428 371.828a172.025 172.025 0 0 0 6.772 9.649z" fill="#eee8d5" class="fill-f1f2f2"></path></svg>