<svg version="1.0" viewBox="0 0 110 110" xml:space="preserve" xmlns="http://www.w3.org/2000/svg" enable-background="new 0 0 110 110"><circle cx="55" cy="55" r="55" fill="#dc322f" class="fill-fabc3d fill-839496"></circle><path d="M59 81a6 6 0 0 1-6 6H29a6 6 0 0 1-6-6V29a6 6 0 0 1 6-6h24a6 6 0 0 1 6 6v52z" fill="#fdf6e3" class="fill-ffffff fill-fdf6e3"></path><path d="M25 35h32v40H25z" fill="#002b36" class="fill-3e3e3f fill-002b36"></path><circle cx="34" cy="30" r="1" fill="#93a1a1" class="fill-cfd3d4 fill-93a1a1"></circle><path d="M49 30a1 1 0 0 1-1 1H38a1 1 0 0 1 0-2h10a1 1 0 0 1 1 1z" fill="#93a1a1" class="fill-cfd3d4 fill-93a1a1"></path><circle cx="41" cy="81" r="4" fill="#93a1a1" class="fill-cfd3d4 fill-93a1a1"></circle><path d="M39 79h4v4h-4z" fill="#fdf6e3" class="fill-ffffff fill-fdf6e3"></path><path d="M57 39.676V35H25v36.676z" fill="#073642" class="fill-5b5c5f fill-073642"></path><path d="M67 27c-11.046 0-20 6.321-20 14.118 0 3.817 2.155 7.274 5.642 9.814L48 63l12.103-8.645c2.153.559 4.47.88 6.897.88 11.046 0 20-6.321 20-14.118S78.046 27 67 27z" fill="#eee8d5" class="fill-f0f1f1 fill-eee8d5"></path><path d="M67 27c-11.046 0-20 6.321-20 14.118 0 3.817 2.155 7.274 5.642 9.814L48 63l.431-.308 32.008-32.008C76.887 28.403 72.181 27 67 27z" fill="#fdf6e3" class="fill-ffffff fill-fdf6e3"></path><circle cx="59" cy="41" r="2" fill="#657b83" class="fill-21b2d1 fill-657b83"></circle><circle cx="67" cy="41" r="2" fill="#657b83" class="fill-21b2d1 fill-657b83"></circle><circle cx="75" cy="41" r="2" fill="#657b83" class="fill-21b2d1 fill-657b83"></circle></svg>