<svg width="110" height="110" xmlns="http://www.w3.org/2000/svg">

 <g>
  <title>background</title>
  <rect fill="none" id="canvas_background" height="402" width="582" y="-1" x="-1"/>
 </g>
 <g>
  <title>Layer 1</title>
  <circle id="svg_1" fill="#859900" r="55" cy="55" cx="55"/>
  <path id="svg_3" fill="#eee8d5" d="m87,75c0,2.209 -1.791,4 -4,4l-56,0c-2.209,0 -4,-1.791 -4,-4l0,-40c0,-2.209 1.791,-4 4,-4l56,0c2.209,0 4,1.791 4,4l0,40z"/>
  <path id="svg_4" fill="#fdf6e3" d="m27,31c-2.209,0 -4,1.791 -4,4l0,40c0,1.347 0.67,2.531 1.69,3.256l47.256,-47.256l-44.946,0z"/>
  <circle id="svg_5" fill="#002b36" r="20" cy="55" cx="47"/>
  <circle id="svg_6" fill="#073642" r="2" cy="37" cx="29"/>
  <path id="svg_7" fill="#93a1a1" d="m83,73c0,1.1 -0.9,2 -2,2l-4,0c-1.1,0 -2,-0.9 -2,-2l0,-16c0,-1.1 0.9,-2 2,-2l4,0c1.1,0 2,0.9 2,2l0,16z"/>
  <circle id="svg_8" fill="#002b36" r="6" cy="41" cx="73"/>
  <path id="svg_9" fill="#CFD3D4" d="m76.765,38.015c-0.255,0.49 -0.859,0.681 -1.349,0.426l-1.774,-0.923c-0.49,-0.255 -0.681,-0.859 -0.426,-1.349l1.384,-2.661c0.255,-0.49 0.859,-0.681 1.349,-0.426l1.774,0.923c0.49,0.255 0.681,0.859 0.426,1.349l-1.384,2.661z"/>
  <polygon id="svg_10" fill="#586e75" points="75.416,38.44 73.642,37.518 62.782,58.394 56.687,62.839 57.865,64.455 64.329,59.741     64.311,59.717 64.34,59.732   "/>
  <path id="svg_11" fill="#657b83" d="m53.248,66.61l-0.024,-0.032c-0.644,-0.883 -0.451,-2.122 0.433,-2.766l2.44,-1.78l2.357,3.232l-2.44,1.78c-0.883,0.643 -2.122,0.449 -2.766,-0.434z"/>
  <circle id="svg_12" fill="#fdf6e3" r="2" cy="59" cx="79"/>
  <circle id="svg_13" fill="#fdf6e3" r="2" cy="65" cx="79"/>
  <circle id="svg_14" fill="#fdf6e3" r="2" cy="71" cx="79"/>
  <circle id="svg_15" fill="#fdf6e3" r="2" cy="41" cx="73"/>
  <path id="svg_16" fill="#073642" d="m47,35c-11.046,0 -20,8.954 -20,20c0,4.584 1.559,8.795 4.153,12.168l28.015,-28.015c-3.373,-2.594 -7.584,-4.153 -12.168,-4.153z"/>
  <circle id="svg_17" fill="#839496" r="8" cy="55" cx="47"/>
  <circle id="svg_18" fill="#FFFFFF" r="1.562" cy="55" cx="47"/>
  <path id="svg_19" fill="#93a1a1" d="m47,47c-4.418,0 -8,3.582 -8,8c0,1.259 0.299,2.445 0.817,3.505l10.688,-10.688c-1.06,-0.518 -2.246,-0.817 -3.505,-0.817z"/>
 </g>
</svg>