<svg width="110" height="110" xmlns="http://www.w3.org/2000/svg">

 <g>
  <title>background</title>
  <rect fill="none" id="canvas_background" height="402" width="582" y="-1" x="-1"/>
 </g>
 <g>
  <title>Layer 1</title>
  <circle id="svg_1" fill="#cb4b16" r="55" cy="55" cx="55"/>
  <path id="svg_3" fill="#fdf6e3" d="m23,26.84c0,-2.121 1.719,-3.84 3.84,-3.84l28.16,0l16,13.44l0,46.72c0,2.121 -1.719,3.84 -3.84,3.84l-40.32,0c-2.121,0 -3.84,-1.719 -3.84,-3.84l0,-56.32z"/>
  <path id="svg_4" fill="#eee8d5" d="m55,22.823353l0,9.6c0,2.121 1.719,3.84 3.84,3.84l12.16,0l-16,-13.44z"/>
  <polygon id="svg_5" fill="#93a1a1" points="77,41.5 82,31 87,41.5 87,80 77,80   "/>
  <polygon id="svg_6" fill="#839496" points="87,47 87,41.5 82,31 82,47   "/>
  <path id="svg_7" fill="#839496" d="m87,83.823353c0,1.657 -1.343,3 -3,3l-4,0c-1.657,0 -3,-1.343 -3,-3l0,-2l10,0l0,2z"/>
  <path id="svg_8" fill="#eee8d5" d="m62,44.823353c0,0.55 -0.45,1 -1,1l-15,0c-0.55,0 -1,-0.45 -1,-1l0,0c0,-0.55 0.45,-1 1,-1l15,0c0.55,0 1,0.45 1,1l0,0z"/>
  <path id="svg_9" fill="#eee8d5" d="m56,50c0,0.55 -0.45,1 -1,1l-9,0c-0.55,0 -1,-0.45 -1,-1l0,0c0,-0.55 0.45,-1 1,-1l9,0c0.55,0 1,0.45 1,1l0,0z"/>
  <path id="svg_10" fill="#eee8d5" d="m62,58c0,0.55 -0.45,1 -1,1l-15,0c-0.55,0 -1,-0.45 -1,-1l0,0c0,-0.55 0.45,-1 1,-1l15,0c0.55,0 1,0.45 1,1l0,0z"/>
  <path id="svg_11" fill="#eee8d5" d="m56,63c0,0.55 -0.45,1 -1,1l-9,0c-0.55,0 -1,-0.45 -1,-1l0,0c0,-0.55 0.45,-1 1,-1l9,0c0.55,0 1,0.45 1,1l0,0z"/>
  <path id="svg_12" fill="#eee8d5" d="m62,71c0,0.55 -0.45,1 -1,1l-15,0c-0.55,0 -1,-0.45 -1,-1l0,0c0,-0.55 0.45,-1 1,-1l15,0c0.55,0 1,0.45 1,1l0,0z"/>
  <path id="svg_13" fill="#eee8d5" d="m56,76c0,0.55 -0.45,1 -1,1l-9,0c-0.55,0 -1,-0.45 -1,-1l0,0c0,-0.55 0.45,-1 1,-1l9,0c0.55,0 1,0.45 1,1l0,0z"/>
  <path id="svg_15" fill="#93a1a1" d="m35.067,52l-3.774,-3.774c-0.391,-0.39 -0.391,-1.024 0,-1.414c0.391,-0.391 1.024,-0.391 1.414,0l2.226,2.226l4.299,-5.159c0.354,-0.425 0.984,-0.482 1.408,-0.128c0.424,0.354 0.482,0.984 0.128,1.408l-5.701,6.841z"/>
  <path id="svg_17" fill="#93a1a1" d="m35.067,65l-3.774,-3.774c-0.391,-0.39 -0.391,-1.024 0,-1.414c0.391,-0.391 1.024,-0.391 1.414,0l2.226,2.226l4.299,-5.159c0.354,-0.425 0.984,-0.482 1.408,-0.128c0.424,0.354 0.482,0.984 0.128,1.408l-5.701,6.841z"/>
  <path id="svg_19" fill="#93a1a1" d="m35.067,78l-3.774,-3.774c-0.391,-0.39 -0.391,-1.024 0,-1.414c0.391,-0.391 1.024,-0.391 1.414,0l2.226,2.226l4.299,-5.159c0.354,-0.425 0.984,-0.482 1.408,-0.128c0.424,0.354 0.482,0.984 0.128,1.408l-5.701,6.841z"/>
  <rect id="svg_20" fill="#eee8d5" y="78.823353" x="77" width="10" height="3"/>
  <rect id="svg_21" fill="#fdf6e3" y="79.823353" x="77" width="5" height="2"/>
  <path id="svg_22" fill="#002b36" d="m82.013,30.984l-1.857,3.899c0.512,0.678 1.152,1.101 1.857,1.101s1.345,-0.422 1.857,-1.101l-1.857,-3.899z"/>
  <path id="svg_23" fill="#586e75" d="m84.5,42.823353c-1.154,0 -2.126,-0.782 -2.413,-1.845c-0.026,-0.097 -0.147,-0.097 -0.173,0c-0.288,1.063 -1.26,1.845 -2.414,1.845c-1.052,0 -1.953,-0.65 -2.322,-1.571c-0.039,-0.097 -0.178,-0.07 -0.178,0.035l0,38.536l10,0l0,-38.536c0,-0.105 -0.139,-0.131 -0.178,-0.034c-0.369,0.92 -1.27,1.57 -2.322,1.57z"/>
  <path id="svg_24" fill="#657b83" d="m77,79.823353l0,-38.507c0,-0.111 0.147,-0.139 0.19,-0.036c0.375,0.906 1.268,1.543 2.31,1.543c1.159,0 2.134,-0.789 2.417,-1.859c0.014,-0.052 0.083,-0.045 0.083,0.009l0,38.85l-5,0z"/>
  <path id="svg_25" fill="#93a1a1" d="m77,81.823353l0,2c0,1.657 1.343,3 3,3l2,0l0,-5l-5,0z"/>
 </g>
</svg>