<svg viewBox="0 0 128 128" xml:space="preserve" xmlns="http://www.w3.org/2000/svg"><circle cx="64" cy="64" fill="#268bd2" r="64" class="fill-4b5f83"></circle><g fill="#002b36" class="fill-22313f"><path d="M34 84h10v3H34zM83.9 84h10v3h-10z"></path></g><path fill="#eee8d5" d="M34 61h60v3H34z" class="fill-e6e6e6"></path><path d="M95 84H33c-2.2 0-4-1.8-4-4V68c0-2.2 1.8-4 4-4h62c2.2 0 4 1.8 4 4v12c0 2.2-1.8 4-4 4z" fill="#fdf6e3" class="fill-ffffff"></path><circle cx="90.9" cy="74" fill="#839496" r="3" class="fill-26a65b"></circle><circle cx="81.9" cy="74" fill="#657b83" r="3" class="fill-cf000f"></circle><g fill="#eee8d5" class="fill-e6e6e6"><path d="M34 69h3v10h-3zM40 69h3v10h-3zM46 69h3v10h-3z"></path></g><path d="M95 61H33c-2.2 0-4-1.8-4-4V45c0-2.2 1.8-4 4-4h62c2.2 0 4 1.8 4 4v12c0 2.2-1.8 4-4 4z" fill="#fdf6e3" class="fill-ffffff"></path><circle cx="90.9" cy="51" fill="#839496" r="3" class="fill-26a65b"></circle><circle cx="81.9" cy="51" fill="#657b83" r="3" class="fill-cf000f"></circle><g fill="#eee8d5" class="fill-e6e6e6"><path d="M34 46h3v10h-3zM40 46h3v10h-3zM46 46h3v10h-3z"></path></g></svg>