<svg width="110" height="110" xmlns="http://www.w3.org/2000/svg">

 <g>
  <title>background</title>
  <rect fill="none" id="canvas_background" height="402" width="582" y="-1" x="-1"/>
 </g>
 <g>
  <title>Layer 1</title>
  <circle id="svg_1" fill="#657b83" r="55" cy="55" cx="55"/>
  <polygon id="svg_3" fill="#eee8d5" points="87,43 83,43 75,47 75,63 83,67 87,67   "/>
  <path id="svg_4" fill="#002b36" d="m79,31c0,2.209 -1.791,4 -4,4l-12,0l0,-8l12,0c2.209,0 4,1.791 4,4z"/>
  <rect id="svg_5" fill="#fdf6e3" y="71" x="36" width="22" height="4"/>
  <polygon id="svg_6" fill="#002b36" points="61,87 55,75 39,75 33,87 39,87 44,77 44,87 50,87 50,77 55,87   "/>
  <path id="svg_7" fill="#002b36" d="m31.422,35.211c-0.277,-0.139 -0.584,-0.211 -0.894,-0.211l-5.528,0c-1.104,0 -2,0.896 -2,2l0,32c0,1.104 0.896,2 2,2l40,0c1.104,0 2,-0.896 2,-2l0,-6l8,0l0,-16l-8,0l0,-6c0,-1.104 -0.896,-2 -2,-2l-22.93,0l4,-6l16.93,0l0,-4l-19.07,0l-6.232,9.349"/>
  <circle id="svg_8" fill="#586e75" r="2" cy="46" cx="59"/>
  <path id="svg_9" fill="#073642" d="m75,27l-12,0l0,4l16,0c0,-2.209 -1.791,-4 -4,-4z"/>
  <polygon id="svg_10" fill="#fdf6e3" points="75,47 75,55 87,55 87,43 83,43   "/>
  <rect id="svg_11" fill="#073642" y="62" x="43" width="18" height="3"/>
 </g>
</svg>